#!OML:ASF F:\VICON\USERDATA\INSTALL\rory3\rory3.ASF
:FULLY-SPECIFIED
:DEGREES
241
root 0.879492 18.1105 19.4014 -2.92176 -3.3094 -1.49078
lowerback 9.75874 1.96252 1.35803
upperback 1.55979 2.78947 1.01066
thorax -3.83012 1.36905 -0.0732727
lowerneck -14.5403 -3.17762 -1.02162
upperneck 19.1486 -4.15818 0.0454122
head 8.37374 -2.03299 -0.289929
rclavicle -1.21756e-015 1.23246e-014
rhumerus -25.9698 -14.8122 -79.2246
rradius 31.1706
rwrist 3.2247
rhand -15.7364 21.1295
rfingers 7.12502
rthumb 10.4545 -8.59058
lclavicle -1.21756e-015 1.23246e-014
lhumerus -35.5271 -0.440932 86.02
lradius 23.3057
lwrist -2.61289
lhand -18.5781 34.7509
lfingers 7.12502
lthumb 7.71235 64.5903
rfemur -10.383 0.720753 22.6886
rtibia 70.7536
rfoot 15.1736 -5.77445
rtoes 17.1612
lfemur -17.3552 -3.98418 -21.1438
ltibia 34.1055
lfoot -11.1484 2.3468
ltoes -1.60996
242
root 0.887279 18.1162 19.5822 -3.17343 -3.14407 -1.0955
lowerback 9.84972 1.8463 0.960829
upperback 1.64809 2.59052 0.933956
thorax -3.80451 1.27557 0.0937564
lowerneck -14.5716 -3.17604 -1.09237
upperneck 19.3088 -4.13054 -0.00339422
head 8.43386 -2.0294 -0.293868
rclavicle 1.66482e-014 2.24627e-014
rhumerus -26.2151 -15.0657 -79.3074
rradius 31.057
rwrist 3.75122
rhand -15.7085 20.856
rfingers 7.12502
rthumb 10.4813 -8.86266
lclavicle 1.66482e-014 2.24627e-014
lhumerus -35.1388 -0.70767 85.789
lradius 23.4193
lwrist -2.60129
lhand -18.2051 35.0422
lfingers 7.12502
lthumb 8.07239 64.868
rfemur -11.4604 0.147546 22.1987
rtibia 71.9941
rfoot 13.3774 -5.91399
rtoes 18.5633
lfemur -16.4316 -3.98309 -21.7331
ltibia 33.9822
lfoot -11.5889 2.41941
ltoes -2.3164
243
root 0.896 18.129 19.7596 -3.36867 -2.93445 -0.942116
lowerback 9.84871 1.73689 0.796677
upperback 1.7441 2.42732 0.949522
thorax -3.7121 1.19748 0.224795
lowerneck -14.5858 -3.19566 -1.10055
upperneck 19.3591 -4.12066 -0.167317
head 8.44978 -2.0422 -0.347
rclavicle -2.42642e-014 2.98177e-015
rhumerus -26.2723 -15.4954 -79.2317
rradius 30.5381
rwrist 4.36079
rhand -15.7885 20.9399
rfingers 7.12502
rthumb 10.4042 -8.78266
lclavicle -2.42642e-014 2.98177e-015
lhumerus -34.6532 -0.733319 85.4877
lradius 23.462
lwrist -3.04186
lhand -18.0024 35.4373
lfingers 7.12502
lthumb 8.26799 65.2555
rfemur -12.4902 -0.363791 22.0045
rtibia 72.9399
rfoot 11.7796 -5.92673
rtoes 18.457
lfemur -15.7753 -4.02487 -22.0691
ltibia 33.84
lfoot -11.7028 2.50273
ltoes -2.95008
244
root 0.901668 18.1305 19.9255 -3.41935 -2.7756 -1.01605
lowerback 9.76312 1.57614 0.791753
upperback 1.74939 2.2149 1.01458
thorax -3.66187 1.0929 0.324802
lowerneck -14.4402 -3.09665 -0.981199
upperneck 19.4136 -3.98206 -0.318052
head 8.43516 -1.98428 -0.398999
rclavicle 2.58669e-014 -1.86858e-014
rhumerus -26.448 -15.8356 -79.2368
rradius 30.103
rwrist 4.96016
rhand -15.5856 21.2762
rfingers 7.12502
rthumb 10.5999 -8.43647
lclavicle 2.58669e-014 -1.86858e-014
lhumerus -34.3135 -0.438272 84.9931
lradius 23.5478
lwrist -3.80998
lhand -18.0686 35.0327
lfingers 7.12502
lthumb 8.20408 64.8534
rfemur -13.7029 -0.756371 22.1364
rtibia 73.7318
rfoot 10.1139 -6.01439
rtoes 17.3614
lfemur -14.8215 -4.04915 -22.0791
ltibia 33.7844
lfoot -12.5264 2.55819
ltoes -1.56806
245
root 0.903588 18.1347 20.086 -3.38269 -2.71509 -0.985751
lowerback 9.69251 1.42495 0.646832
upperback 1.72036 2.00133 1.07652
thorax -3.6597 0.989067 0.498883
lowerneck -14.3829 -2.94417 -0.954212
upperneck 19.5504 -3.75306 -0.440863
head 8.4672 -1.88701 -0.418867
rclavicle -2.23384e-014 2.78299e-015
rhumerus -26.6993 -15.8442 -79.3203
rradius 29.861
rwrist 5.21044
rhand -15.6438 21.3064
rfingers 7.12502
rthumb 10.5437 -8.40912
lclavicle -2.23384e-014 2.78299e-015
lhumerus -34.0823 -0.186459 84.5541
lradius 23.7403
lwrist -4.34016
lhand -19.3224 33.1726
lfingers 7.12502
lthumb 6.99398 63.037
rfemur -15.0336 -1.02429 22.2001
rtibia 74.3566
rfoot 8.55937 -6.05717
rtoes 17.1647
lfemur -14.1439 -4.00491 -22.1808
ltibia 33.6547
lfoot -13.1 2.58515
ltoes -0.841826
246
root 0.908795 18.1387 20.2489 -3.40413 -2.65563 -0.625349
lowerback 9.62415 1.34962 0.204418
upperback 1.6784 1.85504 1.05176
thorax -3.67773 0.921728 0.741312
lowerneck -14.4254 -2.85334 -0.898552
upperneck 19.8613 -3.60002 -0.634006
head 8.5749 -1.83019 -0.479558
rclavicle 9.86469e-015 -1.03368e-014
rhumerus -26.8883 -16.2123 -79.2402
rradius 29.4536
rwrist 5.69029
rhand -15.6428 21.2865
rfingers 7.12502
rthumb 10.5447 -8.42903
lclavicle 9.86469e-015 -1.03368e-014
lhumerus -33.7378 -0.319788 84.2919
lradius 23.7245
lwrist -4.43936
lhand -20.6304 31.2297
lfingers 7.12502
lthumb 5.73119 61.1322
rfemur -16.309 -1.26591 21.8506
rtibia 74.8311
rfoot 6.9882 -5.87277
rtoes 12.5998
lfemur -13.4985 -4.00345 -22.6977
ltibia 33.5266
lfoot -13.4468 2.83458
ltoes -1.50082
247
root 0.914576 18.1478 20.427 -3.62475 -2.49742 -0.206527
lowerback 9.66143 1.25964 -0.219562
upperback 1.65937 1.68969 0.979072
thorax -3.72603 0.844592 0.924201
lowerneck -14.2635 -2.82484 -0.997832
upperneck 20.0405 -3.53849 -0.642652
head 8.60813 -1.80983 -0.458397
rclavicle 5.31749e-015 2.98177e-015
rhumerus -27.1054 -16.6896 -79.1208
rradius 28.9102
rwrist 6.15182
rhand -15.6274 21.2859
rfingers 7.12502
rthumb 10.5596 -8.4288
lclavicle 5.31749e-015 2.98177e-015
lhumerus -33.4256 -0.713229 84.1085
lradius 23.8897
lwrist -3.9444
lhand -20.0817 31.7482
lfingers 7.12502
lthumb 6.26098 61.6357
rfemur -17.1803 -1.52662 21.3956
rtibia 75.065
rfoot 5.76645 -5.66009
rtoes 11.496
lfemur -12.4996 -4.0952 -23.332
ltibia 33.2656
lfoot -13.867 3.04814
ltoes -1.91321
248
root 0.916587 18.1567 20.6007 -3.75855 -2.26648 -0.0102422
lowerback 9.77521 1.13382 -0.447875
upperback 1.60382 1.49879 0.958959
thorax -3.84859 0.753148 1.05349
lowerneck -14.1305 -2.79844 -1.1283
upperneck 20.1966 -3.50104 -0.522309
head 8.64197 -1.78969 -0.391722
rclavicle -2.13445e-014 -2.38542e-014
rhumerus -27.3925 -17.0216 -79.0303
rradius 28.472
rwrist 6.35724
rhand -15.3247 19.8111
rfingers 7.12502
rthumb 10.8516 -9.88854
lclavicle -2.13445e-014 -2.38542e-014
lhumerus -33.1981 -1.08401 83.8983
lradius 24.3647
lwrist -3.42258
lhand -19.4363 32.7299
lfingers 7.12502
lthumb 6.88397 62.598
rfemur -18.1009 -1.80963 21.2423
rtibia 75.1076
rfoot 4.78966 -5.63421
rtoes 11.185
lfemur -11.607 -4.21725 -23.6746
ltibia 33.0343
lfoot -14.3073 3.20818
ltoes -2.32784
249
root 0.920489 18.1473 20.7569 -3.82312 -2.0954 0.13567
lowerback 9.95046 1.00589 -0.622936
upperback 1.52993 1.31096 0.964667
thorax -4.02256 0.663286 1.17906
lowerneck -14.0908 -2.76276 -1.27029
upperneck 20.3649 -3.4422 -0.424018
head 8.6967 -1.76258 -0.329634
rclavicle -6.70898e-015 -2.78299e-015
rhumerus -27.7874 -17.176 -78.9861
rradius 28.364
rwrist 6.32779
rhand -14.988 16.4219
rfingers 7.12502
rthumb 11.1763 -13.2604
lclavicle -6.70898e-015 -2.78299e-015
lhumerus -33.0598 -1.27318 83.6097
lradius 24.9339
lwrist -3.20649
lhand -19.7685 32.8928
lfingers 7.12502
lthumb 6.56333 62.7711
rfemur -19.2136 -2.04508 21.1647
rtibia 75.0443
rfoot 3.68153 -5.29842
rtoes 11.355
lfemur -10.9148 -4.22404 -23.9379
ltibia 32.9203
lfoot -14.6108 3.3477
ltoes -2.52695
250
root 0.924847 18.1367 20.9104 -3.85892 -1.9953 0.121932
lowerback 10.0008 0.873523 -0.614386
upperback 1.48991 1.13728 0.988463
thorax -4.08794 0.577728 1.22122
lowerneck -14.2471 -2.74544 -1.28141
upperneck 20.7235 -3.40486 -0.472397
head 8.84706 -1.75047 -0.346182
rclavicle -3.18055e-015 -1.03368e-014
rhumerus -28.1208 -17.4539 -78.9693
rradius 28.1629
rwrist 6.30827
rhand -14.6514 15.3531
rfingers 7.12502
rthumb 11.5009 -14.3114
lclavicle -3.18055e-015 -1.03368e-014
lhumerus -32.8 -1.44826 83.29
lradius 25.2052
lwrist -3.11121
lhand -20.6982 32.0579
lfingers 7.12502
lthumb 5.66574 61.9622
rfemur -20.3329 -2.21646 21.2874
rtibia 74.8044
rfoot 2.39412 -4.8711
rtoes 12.3037
lfemur -10.2998 -4.21029 -24.0241
ltibia 32.9342
lfoot -15.0611 3.50497
ltoes -2.21013
